<svg width="578" height="182" viewBox="0 0 578 182" fill="none" xmlns="http://www.w3.org/2000/svg">
<path fill-rule="evenodd" clip-rule="evenodd" d="M498.743 173.319C493.588 178.489 486.592 181.371 479.301 181.371C412.3 181.371 70.3523 181.371 9.8197 181.371C7.38859 181.371 5.05605 180.411 3.33755 178.695C1.61904 176.979 0.654343 174.646 0.654343 172.221C0.654343 141.203 0.654343 40.2323 0.654343 9.21384C0.654343 6.78909 1.61904 4.47884 3.33755 2.76322C5.05605 1.02472 7.38859 0.0638428 9.8197 0.0638428C70.3523 0.0638428 412.3 0.0638428 479.301 0.0638428C486.592 0.0638428 493.588 2.96901 498.743 8.11589C516.515 25.8669 558.797 68.0713 575.008 84.244C578.59 87.8353 578.59 93.6228 575.008 97.1913C558.797 113.387 516.515 155.591 498.743 173.319Z" fill="#BDFF32"/>
<path d="M58.2667 122.047V58.2756H104.574V67.8688H69.7062V84.2227H93.2259V93.8159H69.7062V112.454H104.94V122.047H58.2667Z" fill="#32270D"/>
<path d="M149.325 123.143C144.139 123.143 139.655 122.154 135.872 120.174C132.09 118.195 129.177 115.423 127.133 111.86C125.089 108.297 124.067 104.14 124.067 99.389V58.2756H135.598V99.389C135.598 102.252 136.162 104.734 137.291 106.835C138.42 108.936 140.021 110.566 142.096 111.723C144.17 112.88 146.58 113.459 149.325 113.459C152.132 113.459 154.557 112.88 156.601 111.723C158.645 110.566 160.231 108.936 161.36 106.835C162.488 104.734 163.053 102.252 163.053 99.389V58.2756H174.675V99.389C174.675 104.14 173.638 108.297 171.564 111.86C169.489 115.423 166.561 118.195 162.778 120.174C158.996 122.154 154.511 123.143 149.325 123.143Z" fill="#32270D"/>
<path d="M197.463 122.047V58.2756H208.994V112.454H241.574V122.047H197.463Z" fill="#32270D"/>
<path d="M264.178 122.047V58.2756H310.485V67.8688H275.618V84.2227H299.137V93.8159H275.618V112.454H310.852V122.047H264.178Z" fill="#32270D"/>
<path d="M328.606 122.047L347.366 89.5218L329.246 58.2756H342.333L350.661 72.6196L355.328 81.756L360.179 72.5283L368.507 58.2756H381.319L363.107 89.2477L382.143 122.047H369.239L360.179 106.424L355.328 97.1963L350.478 106.333L341.418 122.047H328.606Z" fill="#32270D"/>
</svg>
